<svg width="197mm" height="102mm" version="1.1" viewBox="0 0 197.09457 102.12728" xmlns="http://www.w3.org/2000/svg">
 <g transform="translate(-10.3 -78.8)">
  <g transform="translate(-4.73e-7 4.05)">
   <rect x="11" y="85.7" width="49.5" height="80.1" fill="#fff" stroke="#000" stroke-width="1.32" style="paint-order:fill markers stroke"/>
   <g transform="translate(0 -1.99)">
    <rect x="17.4" y="96.3" width="36.7" height="6.8" fill="#fff" stroke="#ff6000" stroke-width="1.32" style="paint-order:fill markers stroke"/>
    <rect x="48.3" y="97.4" width="4.6" height="4.59" fill="#ffe700" stroke="#ffe700" stroke-width=".893" style="paint-order:fill markers stroke"/>
   </g>
   <g transform="translate(0 9.24)">
    <rect x="17.4" y="96.3" width="36.7" height="6.8" fill="#fff" stroke="#ff6000" stroke-width="1.32" style="paint-order:fill markers stroke"/>
    <rect x="48.3" y="97.4" width="4.6" height="4.59" fill="#ffe700" stroke="#ffe700" stroke-width=".893" style="paint-order:fill markers stroke"/>
   </g>
   <g transform="translate(0 20.5)">
    <rect x="17.4" y="96.3" width="36.7" height="6.8" fill="#fff" stroke="#ff6000" stroke-width="1.32" style="paint-order:fill markers stroke"/>
    <rect x="48.3" y="97.4" width="4.6" height="4.59" fill="#ffe700" stroke="#ffe700" stroke-width=".893" style="paint-order:fill markers stroke"/>
   </g>
   <g transform="translate(0 31.7)">
    <rect x="17.4" y="96.3" width="36.7" height="6.8" fill="#fff" stroke="#ff6000" stroke-width="1.32" style="paint-order:fill markers stroke"/>
    <rect x="48.3" y="97.4" width="4.6" height="4.59" fill="#ffe700" stroke="#ffe700" stroke-width=".893" style="paint-order:fill markers stroke"/>
   </g>
   <g transform="translate(0 42.9)">
    <rect x="17.4" y="96.3" width="36.7" height="6.8" fill="#fff" stroke="#ff6000" stroke-width="1.32" style="paint-order:fill markers stroke"/>
    <rect x="48.3" y="97.4" width="4.6" height="4.59" fill="#ffe700" stroke="#ffe700" stroke-width=".893" style="paint-order:fill markers stroke"/>
   </g>
   <g transform="translate(0 54.2)">
    <rect x="17.4" y="96.3" width="36.7" height="6.8" fill="#fff" stroke="#ff6000" stroke-width="1.32" style="paint-order:fill markers stroke"/>
    <rect x="48.3" y="97.4" width="4.6" height="4.59" fill="#ffe700" stroke="#ffe700" stroke-width=".893" style="paint-order:fill markers stroke"/>
   </g>
  </g>
  <g transform="translate(8.28 4.27)" stroke-width="1.32">
   <rect x="72.6" y="85.5" width="49.5" height="80.1" fill="#fff" stroke="#000" style="paint-order:fill markers stroke"/>
   <rect x="104" y="89.7" width="14.2" height="73.2" fill="#ffe700" stroke="#ffe700" style="paint-order:fill markers stroke"/>
   <g fill-opacity="0" stroke="#ff6000">
    <rect x="79" y="94.1" width="36.7" height="6.8" style="paint-order:fill markers stroke"/>
    <rect x="79" y="105" width="36.7" height="6.8" style="paint-order:fill markers stroke"/>
    <rect x="79" y="117" width="36.7" height="6.8" style="paint-order:fill markers stroke"/>
    <rect x="79" y="128" width="36.7" height="6.8" style="paint-order:fill markers stroke"/>
    <rect x="79" y="139" width="36.7" height="6.8" style="paint-order:fill markers stroke"/>
    <rect x="79" y="150" width="36.7" height="6.8" style="paint-order:fill markers stroke"/>
   </g>
  </g>
  <g transform="translate(12 -.374)" stroke-width="1.32">
   <rect x="132" y="79.8" width="62.3" height="101" fill="#ffe700" stroke="#ffe700" style="paint-order:fill markers stroke"/>
   <rect x="139" y="90.1" width="49.5" height="80.1" fill-opacity="0" stroke="#000" style="paint-order:fill markers stroke"/>
   <g transform="translate(66.9 1.25)" fill-opacity="0" stroke="#ff6000">
    <rect x="79" y="94.1" width="36.7" height="6.8" style="paint-order:fill markers stroke"/>
    <rect x="79" y="105" width="36.7" height="6.8" style="paint-order:fill markers stroke"/>
    <rect x="79" y="117" width="36.7" height="6.8" style="paint-order:fill markers stroke"/>
    <rect x="79" y="128" width="36.7" height="6.8" style="paint-order:fill markers stroke"/>
    <rect x="79" y="139" width="36.7" height="6.8" style="paint-order:fill markers stroke"/>
    <rect x="79" y="150" width="36.7" height="6.8" style="paint-order:fill markers stroke"/>
   </g>
  </g>
 </g>
</svg>
