<svg width="397.96" height="234.59" version="1.1" viewBox="0 0 397.95688 234.58591" xmlns="http://www.w3.org/2000/svg">
<g transform="translate(-281.02 -306.83)">
<path d="m453.75 539.77c-1.1204-9.7466-5.5412-41.6-16.138-19.44-9.5027 7.0208-8.4816-11.434 1.6089-10.893 12.965-11.974 17.248 9.252 19.152 16.598 3.6679-6.82 4.714-17.834 12.744-14.375 11.154-5.6671 21.346 12.528 33.281 14.521 3.7219-4.4001 15.884-9.4287 12.468-16.368-3.0667-13.866-9.7754-26.845-25.989-18.607-16.23 1.6797-31.789 6.2544-47.718 8.2323-15.9 3.0496-30.903-5.3847-46.877-3.7627-9.5294-3.7286-15.797 21.461-3.8694 14.502-1.2359 14.7 17.35-8.1187 14.722 10.616-0.087 18.268 25.531-13.566 13.864 5.2535-5.8575 10.054-15.225 10.439-18.547-1.3245-5.045-5.7448-8.2751 15.461-12.193 0.66392-7.2512-4.9124-15.95 19.35-19.24 2.7177-3.7713-13.13-16.559-8.5645-16.068 4.861-6.4485 15.164-10.244-21.548-14.853-2.5351-10.604 10.001-5.9483-21.142-12.401-4.2275-5.5663 2.1544-13.201 0.93121-13.452 9.727-7.3578-4.0302-7.2616-20.815-1.3451-27.691-2.9856-8.7264 6.1904-16.096 6.1658-3.3275 5.7809 2.7328 10.381 17.036 12.62 2.3342-8.9425-9.5295-4.7656-26.781-16.864-35.899-11.75-6.5771-17.668-23.193-21.797-36.038-3.6443-7.4584 0.12692-22.805-11.227-17.044-2.5643-13.22 1.0847-29.955 13.861-39.613 13.662-9.0774 13.09-26.464 31.016-28.543 13.938-8.8263 27.971-17.165 43.187-23.741 16.776-4.7505 32.276-0.60544 49.022 0.40231 7.6795 0.11708 15.732-1.3112 22.205 3.8039 11.926 6.7 25.008 11.515 36.534 18.6 13.93 10.341 33.325 16.45 49.01 6.1213 15.681-5.0784 14.486-24.92 25.867-33.859 8.3002 9.6974-8.4009 23.592-8.0478 33.333-14.476 3.5165-27.834 16.664-42.792 12.975-16.916 0.30238-26.862-15.611-41.73-21.08-10.994-3.0789-26.491-0.15297-26.763-12.591-22.125 0.0495-44.95-3.0493-65.974 5.7419-18.555 5.6387-37.057 13.483-49.834 28.745-10.715 12.485-24.968 27.378-22.435 45.19 5.8652 14.028 5.113 30.818 17.923 41.514 7.7112 14.45 32.999 19.456 27.474 38.428-1.0466 8.8409-3.5588 18.836 6.8324 21.127-0.97973 10.204 10.233 11.874 4.7002 2.1268-0.90926-11.029-8.2512-31.864-0.61989-37.647 4.9729 5.2954 10.762 27.213 14.516 9.3585 6.3709-13.047 20.497-27.417 7.0037-41.166-5.5752-5.1892-11.905-25.109-0.47231-11.418 14.046-6.7456 9.1435 20.79 20.195 27.361 5.5085 5.2579 5.7816 13.621-1.901 15.432 12.461 14.296 34.899 6.2248 51.447 10.625 15.805 1.5668 30.952-4.3719 46.954-5.0572 10.218-0.13079 13.882-6.381 12.02-14.989 15.023 7.9887 2.3416-20.919 14.094-25.457 7.7233-12.245 12.145 1.9538 5.3363 9.1465-6.5305 13.362 5.2769 22.066-1.6198 34.403 8.055-7.0311 15.329 19.969 16.363 4.9817-8.2717-16.118 4.4712-25.514 15.85-34.968 13.271-11.337 34.762-18.877 23.646-40.458-0.0584-10.456 7.5412-17.903 16.404-9.2661 20.662 6.4995 41.522 16.906 63.728 14.385 7.5368-11.343 18.525-30.207 10.448-43.241-7.6463-8.6813-1.964-15.152 7.5492-10.862 12.409-0.28585 2.6886 24.38 0.54534 33.286-5.7394 13.53-6.2381 33.976-26.354 27.642-10.723 0.0597-21.954 2.1111-32.417 1.3226-8.2021-6.5915-29.763-19.062-23.209 1.2726-2.606 17.131-24.63 19.452-33.893 32.307-8.7472 3.6875-5.8702 31.646 0.51293 24.573-2.5968-6.9466 4.8486-21.688 5.7002-7.0131-1.0375 9.0455 1.3767 33.922 8.4669 12.924 9.6645-12.121 2.948 26.052 15.885 11.203 7.0169 6.0618 10.062 8.9611 15.653 1.1406 3.4829 5.7734 4.8484 5.6545 11.274 4.8812-0.26802 12.772 15.976-7.5788 13.945 6.1501-7.2358 3.1974-16.905 20.082-17.874 2.9244-8.0428-0.97249-11.594-4.4983-16.323 5.6515-5.5002 6.0859-8.4835-12.574-9.5639 1.2972 0.7226 12.353-7.7073 4.8372-7.4088-2.9962-0.99941 7.119-10.043 15.754-9.0026 2.2477-2.9845-1.0544-9.4713 11.264-13.518-0.19071-2.3946-12.15-7.2482 16.761-11.66 0.12931-5.4145-13.435-17.279 2.3259-19.213 9.2874-7.0937-18.075-27.426 5.5587-35.384-13.236-3.8427-11.437-12.585 2.5494-18.328 5.2254 2.0335 13.76-11.456-0.13969-12.159 11.793-0.8963 1.6187-4.2811 2.38-4.721-0.16352zm86.6-32.794c-9.5274-3.2034 0.86626 20.135 0.4789 2.7466zm29.605 8.6369c8.26-0.60724 2.3451-16.649-1.9663-3.7499-7.6365 5.3254-5.2149 4.8165 1.9663 3.7499zm-20.124-21.51c1.4358-7.4994-7.0352-20.698-6.2438-6.4982-0.0895 3.3568 7.6347 18.931 6.2438 6.4982zm68.854-122.23c-7.7998-3.9859-13.529-20.837 0.47776-10.666 7.3011 3.3004 13.394 19.583-0.47776 10.666zm46.261-13.888c-12.487-14.117-34.363-9.8243-49.31-20.129-15.56 3.4928-15.87-21.577-27.383-17.885 0.2401 10.625-8.5337 9.6054-16.321 7.4658-4.7997-6.3132-31.787-11.097-12.068-15.866 9.3241 6.1483 19.85 13.157 17.526-2.8046 14.321-8.1174 25.981 11.598 34.796 18.002 16.791-0.1048 31.46 7.586 45.384 15.739 5.9935 2.3452 25.297 21.09 10.251 18.69l-1.4596-1.3762z" fill="#2f2f2f" stroke-width="1.3333"/>
</g>
</svg>
